<svg width="1200" height="601" viewBox="0 0 1200 601" fill="none" xmlns="http://www.w3.org/2000/svg">
<g clip-path="url(#clip0_1118_33)">
<path d="M0 0.5H300L312.375 12.875H887.625L900 0.5H1200V600.5H900L887.625 588.125H312.375L300 600.5H0V0.5Z" fill="#FF0000"/>
<path d="M300 0.5H900V600.5H300V0.5ZM611.25 554.25L605.625 446.375C605.543 444.601 605.86 442.831 606.553 441.196C607.246 439.561 608.297 438.102 609.628 436.926C610.959 435.751 612.537 434.889 614.246 434.404C615.954 433.919 617.75 433.824 619.5 434.125L726.875 453L712.375 413C711.787 411.408 711.711 409.673 712.16 408.036C712.608 406.4 713.558 404.944 714.875 403.875L832.5 308.625L806 296.25C804.21 295.404 802.791 293.934 802.008 292.116C801.226 290.298 801.134 288.256 801.75 286.375L825 214.875L757.25 229.25C755.415 229.633 753.503 229.369 751.84 228.503C750.177 227.637 748.864 226.223 748.125 224.5L735 193.625L682.125 250.375C680.916 251.65 679.326 252.499 677.594 252.794C675.862 253.09 674.08 252.815 672.517 252.013C670.954 251.21 669.693 249.922 668.924 248.342C668.154 246.762 667.918 244.976 668.25 243.25L693.75 111.75L652.875 135.375C651.915 135.937 650.85 136.297 649.746 136.431C648.642 136.565 647.522 136.471 646.456 136.155C645.389 135.838 644.399 135.306 643.547 134.592C642.694 133.877 641.998 132.995 641.5 132L600 50.5L558.5 132C558.002 132.995 557.306 133.877 556.453 134.592C555.601 135.306 554.611 135.838 553.544 136.155C552.478 136.471 551.358 136.565 550.254 136.431C549.15 136.297 548.085 135.937 547.125 135.375L506.25 111.75L531.75 243.25C532.082 244.976 531.846 246.762 531.076 248.342C530.307 249.922 529.046 251.21 527.483 252.013C525.92 252.815 524.138 253.09 522.406 252.794C520.674 252.499 519.084 251.65 517.875 250.375L465 193.625L451.875 224.5C451.136 226.223 449.823 227.637 448.16 228.503C446.497 229.369 444.585 229.633 442.75 229.25L375 214.875L398.25 286.375C398.866 288.256 398.774 290.298 397.992 292.116C397.209 293.934 395.79 295.404 394 296.25L367.5 308.625L485.125 403.875C486.442 404.944 487.392 406.4 487.84 408.036C488.289 409.673 488.213 411.408 487.625 413L473.125 453L580.5 434.125C582.25 433.824 584.046 433.919 585.754 434.404C587.463 434.889 589.041 435.751 590.372 436.926C591.703 438.102 592.754 439.561 593.447 441.196C594.14 442.831 594.457 444.601 594.375 446.375L588.75 554.25H611.25Z" fill="white"/>
</g>
<defs>
<clipPath id="clip0_1118_33">
<rect width="1200" height="600" fill="white" transform="translate(0 0.5)"/>
</clipPath>
</defs>
</svg>
